#Comment line ignore any data following # character 
#Hierarchical Translation and Rotation (.htr) file 
[Header]	
#Header keywords are followed by a single value 
FileType HTR		#Single word string
DataType HTRS		#Translation followed by rotation and scale data
FileVersion 1		#integer
NumSegments 84		#integer
NumFrames 2		#integer
DataFrameRate 30		#integer, data frame rate in this file
EulerRotationOrder ZYX
CalibrationUnits mm
RotationUnits Degrees
GlobalAxisofGravity Y
BoneLengthAxis Y
ScaleFactor 1.00
[SegmentNames&Hierarchy]
#CHILD	PARENT
MASTER GLOBAL
root MASTER
chest root
L_mid_tent01 root
R_mid_tent01 root
spine01 root
Bip01_Neck chest
L_humerus chest
R_humerus chest
weapon_bone chest
Bip01_Head Bip01_Neck
eye_left_bone Bip01_Head
eye_right_bone Bip01_Head
L_forearm L_humerus
L_front_hand L_forearm
L_weapon_bone L_forearm
L_front_hand01_01 L_front_hand
L_front_hand02_01 L_front_hand
L_front_hand03_01 L_front_hand
L_front_hand01_02 L_front_hand01_01
L_front_hand02_02 L_front_hand02_01
L_front_hand03_02 L_front_hand03_01
R_forearm R_humerus
R_front_hand R_forearm
R_weapon_bone R_forearm
R_front_hand01_01 R_front_hand
R_front_hand02_01 R_front_hand
R_front_hand03_01 R_front_hand
R_front_hand01_02 R_front_hand01_01
R_front_hand02_02 R_front_hand02_01
R_front_hand03_02 R_front_hand03_01
null_rope01_connect L_mid_tent01
Rope1_Seg01 null_rope01_connect
Rope1_Seg02 Rope1_Seg01
Rope1_Seg03 Rope1_Seg02
Rope1_Seg04 Rope1_Seg03
Rope1_Seg05 Rope1_Seg04
Rope1_Seg06 Rope1_Seg05
Rope1_Seg07 Rope1_Seg06
Rope1_Seg09 Rope1_Seg07
L_mid_hand01 Rope1_Seg09
L_mid_hand02 Rope1_Seg09
L_mid_hand03 Rope1_Seg09
null_rope02_connect R_mid_tent01
Rope2_Seg01 null_rope02_connect
Rope2_Seg02 Rope2_Seg01
Rope2_Seg03 Rope2_Seg02
Rope2_Seg04 Rope2_Seg03
Rope2_Seg05 Rope2_Seg04
Rope2_Seg06 Rope2_Seg05
Rope2_Seg07 Rope2_Seg06
Rope2_Seg09 Rope2_Seg07
R_mid_hand01 Rope2_Seg09
R_mid_hand02 Rope2_Seg09
R_mid_hand03 Rope2_Seg09
spine02 spine01
spine03 spine02
pelvis spine03
null_rope03_connect pelvis
null_rope04_connect pelvis
Rope3_Seg01 null_rope03_connect
Rope3_Seg02 Rope3_Seg01
Rope3_Seg03 Rope3_Seg02
Rope3_Seg04 Rope3_Seg03
Rope3_Seg05 Rope3_Seg04
Rope3_Seg06 Rope3_Seg05
Rope3_Seg07 Rope3_Seg06
Rope3_Seg08 Rope3_Seg07
Rope3_Seg09 Rope3_Seg08
R_rear_hand01 Rope3_Seg09
R_rear_hand02 Rope3_Seg09
R_rear_hand03 Rope3_Seg09
Rope4_Seg01 null_rope04_connect
Rope4_Seg02 Rope4_Seg01
Rope4_Seg03 Rope4_Seg02
Rope4_Seg04 Rope4_Seg03
Rope4_Seg05 Rope4_Seg04
Rope4_Seg06 Rope4_Seg05
Rope4_Seg07 Rope4_Seg06
Rope4_Seg08 Rope4_Seg07
Rope4_Seg09 Rope4_Seg08
L_rear_hand01 Rope4_Seg09
L_rear_hand02 Rope4_Seg09
L_rear_hand03 Rope4_Seg09
[BasePosition]
#SegmentName Tx, Ty, Tz, Rx, Ry, Rz, BoneLength
MASTER 0.000000 0.000000 0.000000 -90.000000 0.000000 0.000000 10.000000 
root 0.000000 0.000000 0.000000 0.000000 0.000000 0.000000 10.000000 
chest 0.000000 0.000000 0.000000 0.000000 0.000000 0.000000 10.000000 
L_mid_tent01 0.000000 0.000000 0.000000 0.000000 0.000000 0.000000 10.000000 
R_mid_tent01 0.000000 0.000000 0.000000 0.000000 0.000000 0.000000 10.000000 
spine01 0.000000 0.000000 0.000000 0.000000 0.000000 0.000000 10.000000 
Bip01_Neck 0.000000 0.000000 0.000000 0.000000 0.000000 0.000000 10.000000 
L_humerus 0.000000 0.000000 0.000000 0.000000 0.000000 0.000000 10.000000 
R_humerus 0.000000 0.000000 0.000000 0.000000 0.000000 0.000000 10.000000 
weapon_bone 0.000000 0.000000 0.000000 0.000000 0.000000 0.000000 10.000000 
Bip01_Head 0.000000 0.000000 0.000000 0.000000 0.000000 0.000000 10.000000 
eye_left_bone 0.000000 0.000000 0.000000 0.000000 0.000000 0.000000 10.000000 
eye_right_bone 0.000000 0.000000 0.000000 0.000000 0.000000 0.000000 10.000000 
L_forearm 0.000000 0.000000 0.000000 0.000000 0.000000 0.000000 10.000000 
L_front_hand 0.000000 0.000000 0.000000 0.000000 0.000000 0.000000 10.000000 
L_weapon_bone 0.000000 0.000000 0.000000 0.000000 0.000000 0.000000 10.000000 
L_front_hand01_01 0.000000 0.000000 0.000000 0.000000 0.000000 0.000000 10.000000 
L_front_hand02_01 0.000000 0.000000 0.000000 0.000000 0.000000 0.000000 10.000000 
L_front_hand03_01 0.000000 0.000000 0.000000 0.000000 0.000000 0.000000 10.000000 
L_front_hand01_02 0.000000 0.000000 0.000000 0.000000 0.000000 0.000000 10.000000 
L_front_hand02_02 0.000000 0.000000 0.000000 0.000000 0.000000 0.000000 10.000000 
L_front_hand03_02 0.000000 0.000000 0.000000 0.000000 0.000000 0.000000 10.000000 
R_forearm 0.000000 0.000000 0.000000 0.000000 0.000000 0.000000 10.000000 
R_front_hand 0.000000 0.000000 0.000000 0.000000 0.000000 0.000000 10.000000 
R_weapon_bone 0.000000 0.000000 0.000000 0.000000 0.000000 0.000000 10.000000 
R_front_hand01_01 0.000000 0.000000 0.000000 0.000000 0.000000 0.000000 10.000000 
R_front_hand02_01 0.000000 0.000000 0.000000 0.000000 0.000000 0.000000 10.000000 
R_front_hand03_01 0.000000 0.000000 0.000000 0.000000 0.000000 0.000000 10.000000 
R_front_hand01_02 0.000000 0.000000 0.000000 0.000000 0.000000 0.000000 10.000000 
R_front_hand02_02 0.000000 0.000000 0.000000 0.000000 0.000000 0.000000 10.000000 
R_front_hand03_02 0.000000 0.000000 0.000000 0.000000 0.000000 0.000000 10.000000 
null_rope01_connect 0.000000 0.000000 0.000000 0.000000 0.000000 0.000000 10.000000 
Rope1_Seg01 0.000000 0.000000 0.000000 0.000000 0.000000 0.000000 10.000000 
Rope1_Seg02 0.000000 0.000000 0.000000 0.000000 0.000000 0.000000 10.000000 
Rope1_Seg03 0.000000 0.000000 0.000000 0.000000 0.000000 0.000000 10.000000 
Rope1_Seg04 0.000000 0.000000 0.000000 0.000000 0.000000 0.000000 10.000000 
Rope1_Seg05 0.000000 0.000000 0.000000 0.000000 0.000000 0.000000 10.000000 
Rope1_Seg06 0.000000 0.000000 0.000000 0.000000 0.000000 0.000000 10.000000 
Rope1_Seg07 0.000000 0.000000 0.000000 0.000000 0.000000 0.000000 10.000000 
Rope1_Seg09 0.000000 0.000000 0.000000 0.000000 0.000000 0.000000 10.000000 
L_mid_hand01 0.000000 0.000000 0.000000 0.000000 0.000000 0.000000 10.000000 
L_mid_hand02 0.000000 0.000000 0.000000 0.000000 0.000000 0.000000 10.000000 
L_mid_hand03 0.000000 0.000000 0.000000 0.000000 0.000000 0.000000 10.000000 
null_rope02_connect 0.000000 0.000000 0.000000 0.000000 0.000000 0.000000 10.000000 
Rope2_Seg01 0.000000 0.000000 0.000000 0.000000 0.000000 0.000000 10.000000 
Rope2_Seg02 0.000000 0.000000 0.000000 0.000000 0.000000 0.000000 10.000000 
Rope2_Seg03 0.000000 0.000000 0.000000 0.000000 0.000000 0.000000 10.000000 
Rope2_Seg04 0.000000 0.000000 0.000000 0.000000 0.000000 0.000000 10.000000 
Rope2_Seg05 0.000000 0.000000 0.000000 0.000000 0.000000 0.000000 10.000000 
Rope2_Seg06 0.000000 0.000000 0.000000 0.000000 0.000000 0.000000 10.000000 
Rope2_Seg07 0.000000 0.000000 0.000000 0.000000 0.000000 0.000000 10.000000 
Rope2_Seg09 0.000000 0.000000 0.000000 0.000000 0.000000 0.000000 10.000000 
R_mid_hand01 0.000000 0.000000 0.000000 0.000000 0.000000 0.000000 10.000000 
R_mid_hand02 0.000000 0.000000 0.000000 0.000000 0.000000 0.000000 10.000000 
R_mid_hand03 0.000000 0.000000 0.000000 0.000000 0.000000 0.000000 10.000000 
spine02 0.000000 0.000000 0.000000 0.000000 0.000000 0.000000 10.000000 
spine03 0.000000 0.000000 0.000000 0.000000 0.000000 0.000000 10.000000 
pelvis 0.000000 0.000000 0.000000 0.000000 0.000000 0.000000 10.000000 
null_rope03_connect 0.000000 0.000000 0.000000 0.000000 0.000000 0.000000 10.000000 
null_rope04_connect 0.000000 0.000000 0.000000 0.000000 0.000000 0.000000 10.000000 
Rope3_Seg01 0.000000 0.000000 0.000000 0.000000 0.000000 0.000000 10.000000 
Rope3_Seg02 0.000000 0.000000 0.000000 0.000000 0.000000 0.000000 10.000000 
Rope3_Seg03 0.000000 0.000000 0.000000 0.000000 0.000000 0.000000 10.000000 
Rope3_Seg04 0.000000 0.000000 0.000000 0.000000 0.000000 0.000000 10.000000 
Rope3_Seg05 0.000000 0.000000 0.000000 0.000000 0.000000 0.000000 10.000000 
Rope3_Seg06 0.000000 0.000000 0.000000 0.000000 0.000000 0.000000 10.000000 
Rope3_Seg07 0.000000 0.000000 0.000000 0.000000 0.000000 0.000000 10.000000 
Rope3_Seg08 0.000000 0.000000 0.000000 0.000000 0.000000 0.000000 10.000000 
Rope3_Seg09 0.000000 0.000000 0.000000 0.000000 0.000000 0.000000 10.000000 
R_rear_hand01 0.000000 0.000000 0.000000 0.000000 0.000000 0.000000 10.000000 
R_rear_hand02 0.000000 0.000000 0.000000 0.000000 0.000000 0.000000 10.000000 
R_rear_hand03 0.000000 0.000000 0.000000 0.000000 0.000000 0.000000 10.000000 
Rope4_Seg01 0.000000 0.000000 0.000000 0.000000 0.000000 0.000000 10.000000 
Rope4_Seg02 0.000000 0.000000 0.000000 0.000000 0.000000 0.000000 10.000000 
Rope4_Seg03 0.000000 0.000000 0.000000 0.000000 0.000000 0.000000 10.000000 
Rope4_Seg04 0.000000 0.000000 0.000000 0.000000 0.000000 0.000000 10.000000 
Rope4_Seg05 0.000000 0.000000 0.000000 0.000000 0.000000 0.000000 10.000000 
Rope4_Seg06 0.000000 0.000000 0.000000 0.000000 0.000000 0.000000 10.000000 
Rope4_Seg07 0.000000 0.000000 0.000000 0.000000 0.000000 0.000000 10.000000 
Rope4_Seg08 0.000000 0.000000 0.000000 0.000000 0.000000 0.000000 10.000000 
Rope4_Seg09 0.000000 0.000000 0.000000 0.000000 0.000000 0.000000 10.000000 
L_rear_hand01 0.000000 0.000000 0.000000 0.000000 0.000000 0.000000 10.000000 
L_rear_hand02 0.000000 0.000000 0.000000 0.000000 0.000000 0.000000 10.000000 
L_rear_hand03 0.000000 0.000000 0.000000 0.000000 0.000000 0.000000 10.000000 
#Beginning of Data. Separated by tabs
#Fr	Tx	Ty	Tz	Rx	Ry	Rz	SF
[MASTER]
11 -1060.952759 2086.227539 -387.948792 0.001660 0.001660 0.001660 2372.439697
12 -1142.375610 2329.587402 -466.701508 0.001660 0.001660 0.001660 2636.249023
[root]
11 138.662186 -243.280487 590.658203 -49.745735 0.218307 -71.341263 653.674011
12 124.133369 -248.837891 598.074890 -55.523163 -1.834040 -70.809654 659.562744
[chest]
11 -84.512650 -34.090519 0.000000 15.444113 -3.133872 164.974869 91.129311
12 -84.512650 -34.090519 0.000000 11.944114 -6.181516 164.624985 91.129311
[L_mid_tent01]
11 27.299044 22.179241 -249.918777 -18.928608 8.700674 24.549784 252.381744
12 27.299053 22.179230 -249.918777 -18.842939 10.492103 25.845312 252.381744
[R_mid_tent01]
11 23.228794 24.509907 226.238495 155.116760 -4.055305 4.165832 228.744751
12 23.228794 24.509907 226.238495 156.949249 -3.335233 7.260057 228.744751
[spine01]
11 -0.361383 -0.195265 0.000000 0.001688 0.001631 1.950352 0.410763
12 -0.361383 -0.195265 0.000000 0.001687 0.001632 1.890996 0.410763
[Bip01_Neck]
11 165.484543 71.581718 0.000119 176.643677 -1.657967 43.431911 180.302734
12 165.484543 71.581718 0.000119 176.643677 -1.657967 43.431911 180.302734
[L_humerus]
11 -13.983130 -135.272980 -120.471481 177.143875 -10.824289 -148.351425 181.680161
12 -13.983130 -135.272980 -120.471481 174.568207 -5.808118 -146.843964 181.680161
[R_humerus]
11 -13.983309 -135.273102 125.287651 176.198166 8.740686 -151.560242 184.909012
12 -13.983309 -135.273102 125.287651 178.925110 4.000393 -150.120819 184.909012
[weapon_bone]
11 235.964890 -300.705902 0.000000 0.000000 -89.951546 -128.212341 382.234833
12 235.964890 -300.705902 0.000000 0.000000 -89.951546 -128.212341 382.234833
[Bip01_Head]
11 213.381592 185.889450 9.532233 -4.097939 2.154507 -41.277847 283.156219
12 213.388062 185.871399 9.765445 -4.056013 2.318708 -41.648602 283.157227
[eye_left_bone]
11 -24.626970 125.451866 -64.772606 0.000000 -90.000000 -99.840431 143.318359
12 -24.626970 125.451866 -64.772606 0.000000 -90.000000 -99.840431 143.318359
[eye_right_bone]
11 -24.626970 125.451866 64.327362 0.000000 -89.980217 80.156380 143.117676
12 -24.626970 125.451866 64.327362 0.000000 -89.965736 80.156380 143.117676
[L_forearm]
11 322.776093 0.000000 -0.000119 0.000415 -0.002310 -110.350098 322.776093
12 322.776093 0.000000 -0.000119 0.000413 -0.002311 -110.247589 322.776093
[L_front_hand]
11 241.149185 -0.042021 -3.300071 -178.667953 -1.835447 -27.422350 241.171753
12 241.149185 -0.042021 -3.300071 -178.667953 -1.835447 -27.422342 241.171753
[L_weapon_bone]
11 156.183838 0.000000 0.000000 0.000014 0.000007 0.000001 156.183838
12 156.183838 0.000000 0.000000 0.000014 0.000007 0.000001 156.183838
[L_front_hand01_01]
11 86.095154 20.947098 -0.655860 -0.366594 -0.477154 75.385574 88.609184
12 86.095154 20.947098 -0.655860 -0.366594 -0.477154 75.385574 88.609184
[L_front_hand02_01]
11 86.935165 -11.437475 24.513514 154.399796 -59.883835 -61.369587 91.046425
12 86.935165 -11.437475 24.513514 154.399796 -59.883835 -61.369587 91.046425
[L_front_hand03_01]
11 86.637497 -14.123976 -20.424902 -153.913849 58.118122 -62.702866 90.126129
12 86.637497 -14.123976 -20.424902 -153.913849 58.118122 -62.702866 90.126129
[L_front_hand01_02]
11 71.020905 -0.000179 0.000030 0.000334 -0.002323 -106.367332 71.020905
12 71.020905 -0.000179 0.000030 0.000334 -0.002323 -106.368286 71.020905
[L_front_hand02_02]
11 71.020927 -0.000119 0.000060 0.000334 -0.002323 -106.367332 71.020927
12 71.020927 -0.000119 0.000060 0.000334 -0.002323 -106.368286 71.020927
[L_front_hand03_02]
11 71.020905 -0.000060 0.000060 0.000334 -0.002323 -106.367332 71.020905
12 71.020905 -0.000060 0.000060 0.000334 -0.002323 -106.368286 71.020905
[R_forearm]
11 322.776428 -0.000060 0.000030 0.201565 0.066808 -108.999756 322.776428
12 322.776428 -0.000060 0.000030 0.201624 0.066629 -108.897812 322.776428
[R_front_hand]
11 238.847015 -0.006795 2.210259 -2.635298 -10.645462 -26.312506 238.857239
12 238.847015 -0.006795 2.210259 -2.635298 -10.645461 -26.312506 238.857239
[R_weapon_bone]
11 155.664093 0.002503 -0.000030 0.003487 0.001180 -90.988930 155.664078
12 155.664093 0.002503 -0.000030 0.003487 0.001180 -90.988930 155.664078
[R_front_hand01_01]
11 87.624611 14.231146 22.918642 -154.633499 -59.950619 61.746044 91.683487
12 87.624611 14.231146 22.918642 -154.633484 -59.950607 61.746033 91.683487
[R_front_hand02_01]
11 89.356956 14.367283 -19.491137 154.602661 58.302849 63.744389 92.579636
12 89.356956 14.367283 -19.491137 154.602661 58.302856 63.744389 92.579636
[R_front_hand03_01]
11 87.286232 -22.307278 -0.143439 0.162155 -0.423168 -75.767921 90.091743
12 87.286232 -22.307278 -0.143439 0.162155 -0.423168 -75.767921 90.091743
[R_front_hand01_02]
11 71.020905 0.000060 0.000119 0.002323 -0.000334 106.381721 71.020905
12 71.020905 0.000060 0.000119 0.002323 -0.000334 106.381714 71.020905
[R_front_hand02_02]
11 71.020844 -0.000030 -0.000119 0.002323 -0.000334 106.381721 71.020836
12 71.020844 -0.000030 -0.000119 0.002323 -0.000334 106.381714 71.020836
[R_front_hand03_02]
11 71.020905 0.000000 0.000030 0.002323 -0.000334 106.381721 71.020905
12 71.020905 0.000000 0.000030 0.002323 -0.000334 106.381714 71.020905
[null_rope01_connect]
11 328.732483 0.000000 -0.000238 42.412086 -63.139217 18.232691 328.732483
12 328.732483 0.000000 -0.000238 54.273926 -67.284508 7.508704 328.732483
[Rope1_Seg01]
11 0.000012 -0.000054 0.000066 112.593697 -6.486491 -66.972168 0.000087
12 0.000017 -0.000053 0.000073 103.026779 3.104970 -75.784981 0.000092
[Rope1_Seg02]
11 139.999863 -0.000179 0.000000 -1.973608 -2.677188 -1.006109 139.999863
12 139.999863 -0.000179 0.000000 -5.213861 -5.181390 -4.228626 139.999863
[Rope1_Seg03]
11 139.999924 0.000060 -0.000060 -6.549950 -8.078716 -3.727593 139.999924
12 139.999924 0.000060 -0.000060 -11.786679 -12.379623 -11.011073 139.999924
[Rope1_Seg04]
11 139.999924 -0.000060 -0.000119 4.789227 4.702539 3.438883 139.999924
12 139.999924 -0.000060 -0.000119 19.414404 15.352165 16.999903 139.999924
[Rope1_Seg05]
11 139.999832 0.000119 -0.000060 6.606531 7.578162 4.193703 139.999832
12 139.999832 0.000119 -0.000060 6.335744 7.710749 4.580263 139.999832
[Rope1_Seg06]
11 139.999954 0.000119 -0.000060 1.571616 2.116332 0.901369 139.999954
12 139.999954 0.000119 -0.000060 2.255564 3.297853 1.457218 139.999954
[Rope1_Seg07]
11 139.999985 0.000060 0.000000 0.902400 1.268872 0.496376 139.999985
12 139.999985 0.000060 0.000000 1.286961 2.015789 0.796001 139.999985
[Rope1_Seg09]
11 121.602913 0.000119 -0.000089 -89.793175 -1.359789 0.847147 121.602913
12 121.602913 0.000119 -0.000089 -89.793175 -1.359789 0.847147 121.602913
[L_mid_hand01]
11 103.859421 1.038730 8.195221 130.544373 -67.584534 -38.866943 104.187431
12 103.859421 1.038730 8.195221 130.544388 -67.584534 -38.866955 104.187431
[L_mid_hand02]
11 105.572853 -4.139662 -10.864139 -168.923172 43.409309 -73.498886 106.211075
12 105.572853 -4.139662 -10.864139 -168.923172 43.409309 -73.498894 106.211075
[L_mid_hand03]
11 104.641464 17.579376 -3.913581 -6.012627 17.808174 74.893669 106.179977
12 104.641464 17.579376 -3.913581 -6.012627 17.808174 74.893669 106.179977
[null_rope02_connect]
11 328.732849 0.000179 -0.000119 -124.162346 61.450626 -30.004765 328.732849
12 328.732849 0.000179 -0.000119 -115.524101 62.046394 -20.565407 328.732849
[Rope2_Seg01]
11 0.000032 0.000219 0.000000 -38.712147 -6.895352 -69.535217 0.000221
12 0.000030 0.000226 0.000000 -38.825947 -10.064816 -62.263123 0.000228
[Rope2_Seg02]
11 139.999741 -0.000060 -0.000119 -1.613901 -0.233255 -0.875482 139.999756
12 139.999741 -0.000060 -0.000119 -2.016084 5.612621 -3.564377 139.999756
[Rope2_Seg03]
11 140.000107 0.000030 0.000000 0.430429 2.398574 -0.785772 140.000107
12 140.000107 0.000030 0.000000 -2.301526 3.989284 -3.296221 140.000107
[Rope2_Seg04]
11 139.999802 0.000000 -0.000060 -0.339820 0.094813 -0.275580 139.999802
12 139.999802 0.000000 -0.000060 0.145231 1.233736 -0.446859 139.999802
[Rope2_Seg05]
11 139.999985 -0.000060 0.000119 -3.296064 -5.249125 0.539121 139.999985
12 139.999985 -0.000060 0.000119 3.201452 -1.614847 2.940580 139.999985
[Rope2_Seg06]
11 139.999893 -0.000030 -0.000119 -9.181735 -8.850661 0.534619 139.999893
12 139.999893 -0.000030 -0.000119 6.553570 -2.767307 5.052934 139.999893
[Rope2_Seg07]
11 139.999893 0.000060 -0.000060 -10.954155 -5.467809 -0.592818 139.999893
12 139.999893 0.000060 -0.000060 5.752414 -1.193465 3.473172 139.999893
[Rope2_Seg09]
11 121.338966 0.000089 -0.000060 33.793236 -1.359788 -0.847141 121.338966
12 121.338966 0.000089 -0.000060 33.793236 -1.359788 -0.847141 121.338966
[R_mid_hand01]
11 104.680779 11.144459 -10.335981 -16.985918 45.007172 69.367981 105.778534
12 104.680779 11.144459 -10.335981 -16.212063 45.237247 70.462852 105.778534
[R_mid_hand02]
11 104.070427 2.443552 8.231699 50.323429 -67.136879 37.930359 104.424065
12 104.070427 2.443552 8.231699 49.067368 -67.749771 39.286453 104.424065
[R_mid_hand03]
11 106.028137 -11.221827 -5.996406 -176.876617 15.509374 -75.754585 106.788818
12 106.028137 -11.221827 -5.996406 -177.101105 15.551026 -76.585571 106.788818
[spine02]
11 129.756927 0.001550 0.000119 0.451492 -4.034843 -14.253316 129.756927
12 129.756927 0.001550 0.000119 0.441349 -4.036031 -14.104783 129.756927
[spine03]
11 78.613853 0.081211 -4.898942 1.957896 3.799303 17.412167 78.766396
12 78.613831 0.081244 -4.898934 1.953192 3.801799 17.339930 78.766365
[pelvis]
11 169.435242 0.051022 0.000000 0.018306 -0.190354 -9.991433 169.435257
12 169.435242 0.051022 0.000000 0.021968 -0.190008 -10.714201 169.435257
[null_rope03_connect]
11 -1.257226 -2.466202 137.391083 20.075878 -45.187084 67.572525 137.418976
12 -1.257226 -2.466202 137.391083 26.389198 -49.434940 64.879753 137.418976
[null_rope04_connect]
11 -1.259640 -2.480268 -137.844437 20.075878 -45.187084 67.572525 137.872513
12 -1.259640 -2.480268 -137.844437 26.389198 -49.434940 64.879753 137.872513
[Rope3_Seg01]
11 0.000000 0.000000 0.000000 17.303532 21.033037 -79.862305 0.000000
12 0.000000 0.000000 0.000000 18.647797 23.156729 -76.614624 0.000000
[Rope3_Seg02]
11 139.999924 -0.000119 0.000060 -1.259287 -10.111419 6.377442 139.999924
12 139.999924 -0.000119 0.000060 -2.127316 -12.331798 6.189646 139.999924
[Rope3_Seg03]
11 139.999924 -0.000119 0.000119 -0.799327 -8.045399 4.754436 139.999924
12 139.999924 -0.000119 0.000119 -1.295096 -10.791377 4.830027 139.999924
[Rope3_Seg04]
11 139.999924 0.000119 0.000000 -0.564524 -6.604875 3.626457 139.999924
12 139.999924 0.000119 0.000000 -0.726929 -9.481468 3.754890 139.999924
[Rope3_Seg05]
11 139.999924 -0.000238 0.000060 0.052437 -1.309584 1.183178 139.999924
12 139.999924 -0.000238 0.000060 0.089243 -1.151636 1.128455 139.999924
[Rope3_Seg06]
11 139.999893 -0.000119 -0.000060 0.547402 2.758368 -0.346307 139.999893
12 139.999893 -0.000119 -0.000060 0.639265 5.640154 -0.526396 139.999893
[Rope3_Seg07]
11 139.999771 0.000060 -0.000119 0.689939 2.757805 -0.179623 139.999771
12 139.999771 0.000060 -0.000119 0.964460 5.566073 -0.362448 139.999771
[Rope3_Seg08]
11 139.999985 -0.000060 0.000000 0.657517 1.588082 0.213570 139.999985
12 139.999985 -0.000060 0.000000 0.956576 3.612755 -0.002811 139.999985
[Rope3_Seg09]
11 90.185997 -0.000179 -0.000060 89.793228 -1.359877 -0.847183 90.185997
12 90.185997 -0.000179 -0.000060 89.793228 -1.359877 -0.847183 90.185997
[R_rear_hand01]
11 103.366196 -6.073594 -10.757982 -177.375809 24.533825 -73.108765 104.101845
12 103.366196 -6.073594 -10.757982 -177.714203 24.565960 -73.910950 104.101845
[R_rear_hand02]
11 100.509819 12.039542 -7.992327 -13.406404 36.702316 71.277184 101.543350
12 100.509819 12.039542 -7.992327 -12.874829 36.868488 72.167213 101.543350
[R_rear_hand03]
11 101.539970 5.215704 5.435467 72.167252 -71.123344 20.795891 101.819031
12 101.539970 5.215704 5.435467 71.484581 -71.816628 21.513813 101.819031
[Rope4_Seg01]
11 -0.000027 -0.000154 0.000000 -67.926750 26.522226 -47.914543 0.000157
12 -0.000028 -0.000166 0.000000 -71.333366 29.080870 -53.166969 0.000168
[Rope4_Seg02]
11 139.999985 0.000060 0.000119 -9.300885 3.720911 -12.028141 139.999985
12 139.999985 0.000060 0.000119 -6.156273 2.891415 -9.751838 139.999985
[Rope4_Seg03]
11 139.999924 0.000000 -0.000238 -11.106048 6.364077 -13.499371 139.999924
12 139.999924 0.000000 -0.000238 -8.396949 4.860634 -12.339060 139.999924
[Rope4_Seg04]
11 139.999985 0.000000 0.000119 -8.518659 7.755226 -10.371041 139.999985
12 139.999985 0.000000 0.000119 -7.869187 6.672407 -11.174571 139.999985
[Rope4_Seg05]
11 139.999802 -0.000060 -0.000119 -0.879703 1.834115 -0.981940 139.999802
12 139.999802 -0.000060 -0.000119 -0.943818 1.880913 -1.245541 139.999802
[Rope4_Seg06]
11 139.999924 0.000000 0.000060 -0.550309 1.160211 -0.780436 139.999924
12 139.999924 0.000000 0.000060 -0.693766 1.280699 -1.148657 139.999924
[Rope4_Seg07]
11 139.999802 0.000000 0.000000 -0.429750 0.958445 -0.724037 139.999802
12 139.999802 0.000000 0.000000 -0.460710 0.947713 -0.887471 139.999802
[Rope4_Seg08]
11 139.999924 0.000000 0.000119 -1.791059 0.588300 -0.442816 139.999924
12 139.999924 0.000000 0.000119 -1.806410 0.586683 -0.541799 139.999924
[Rope4_Seg09]
11 90.185791 0.000060 0.000060 -135.617828 2.228885 0.850567 90.185791
12 90.185791 0.000060 0.000060 -135.617828 2.228885 0.850567 90.185791
[L_rear_hand01]
11 101.696655 -8.392275 -7.654577 -12.874831 -36.868492 107.832779 102.329041
12 101.696655 -8.392275 -7.654577 -12.874827 -36.868492 107.832764 102.329041
[L_rear_hand02]
11 102.726799 -1.568258 5.773216 71.484627 71.816643 158.486176 102.900848
12 102.726799 -1.568258 5.773216 71.484581 71.816628 158.486160 102.900848
[L_rear_hand03]
11 104.552910 9.721220 -10.420293 -177.714203 -24.565960 -106.089035 105.519653
12 104.552910 9.721220 -10.420293 -177.714203 -24.565966 -106.089035 105.519653
